<svg width="62" height="71" viewBox="0 0 62 71" fill="none" xmlns="http://www.w3.org/2000/svg">
<path fill-rule="evenodd" clip-rule="evenodd" d="M62 17.75L31 0L0 17.75V53.25L31 71L62 53.25V17.75ZM31 3.28249L59.1336 19.3912V51.6087L31 67.7175L2.8664 51.6087V19.3912L31 3.28249ZM19.2597 31.0114C18.4376 30.3158 17.2072 30.4183 16.5115 31.2404C15.8159 32.0626 15.9184 33.293 16.7405 33.9886L29.7405 44.9886C30.4676 45.6038 31.5327 45.6038 32.2597 44.9886L45.2597 33.9886C46.0818 33.293 46.1844 32.0626 45.4887 31.2404C44.7931 30.4183 43.5627 30.3158 42.7405 31.0114L31.0001 40.9456L19.2597 31.0114Z" fill="#FF8B00"/>
</svg>
